<svg width="96" height="96" xmlns="http://www.w3.org/2000/svg" viewBox="0 0 100 100" style="filter:drop-shadow(0 2px 10px rgba(212,175,55,0.4))">
          <defs>
            <linearGradient id="globeGradient" x1="10%" y1="10%" x2="90%" y2="90%">
              <stop offset="5%" stop-color="#FFF8D6"/>
              <stop offset="35%" stop-color="#E6C259"/>
              <stop offset="65%" stop-color="#B68E2D"/>
              <stop offset="95%" stop-color="#755615"/>
            </linearGradient>
          </defs>
          <g fill="url(#globeGradient)">
            <ellipse cx="50" cy="15" rx="20" ry="7"/>
            <path d="M 18 26 Q 50 33 82 26 L 82 34 Q 50 41 18 34 Z"/>
            <path d="M 8 40 Q 50 47 92 40 L 92 49 Q 50 56 8 49 Z"/>
            <path d="M 8 55 Q 50 62 92 55 L 92 64 Q 50 71 8 64 Z"/>
            <path d="M 18 70 Q 50 77 82 70 L 82 78 Q 50 85 18 78 Z"/>
            <path d="M 32 84 Q 50 89 68 84 L 68 89 Q 50 94 32 89 Z"/>
          </g>
        </svg>